# xmcd
#
# Track frame offsets:
#	150
#	16783
#	29475
#	49352
#
# Disc length: 935 seconds
#
# Revision: 0
# Processed by: cddbd v1.5PL3 Copyright (c) Steve Scherf et al.
# Submitted via: dBpowerAMP V4.0
#
DISCID=2b03a504
DTITLE=Willis - Take You High
DYEAR=1900
DGENRE=Blues
TTITLE0=Take You High (Edit)
TTITLE1=Old Time Religion
TTITLE2=Haunt You
TTITLE3=Word Up
EXTD=
EXTT0=
EXTT1=
EXTT2=
EXTT3=
PLAYORDER=
